<svg width="220" height="90" viewBox="0 0 220 90" fill="none" xmlns="http://www.w3.org/2000/svg">
<path fill-rule="evenodd" clip-rule="evenodd" d="M87.196 57.2271C87.1428 57.275 87.087 57.3251 87.0312 57.38C85.1111 59.06 81.6974 60.6 77.3591 60.6C68.1849 60.6 60.5752 53.32 60.5752 44.15C60.5752 34.98 68.0426 27.7 77.3591 27.7C80.7728 27.7 84.1865 28.61 87.6713 31.2C88.098 31.55 88.3825 31.9 88.4536 32.53L88.8803 38.48L88.5247 38.69C88.2403 37.78 84.6843 28.96 77.3591 28.96C70.8162 28.96 66.7625 36.1 66.7625 44.15C66.7625 52.2 70.3895 59.27 77.3591 59.27C84.3287 59.27 88.5247 51.64 89.4493 49.82L89.8049 50.03L87.5291 56.82C87.4765 56.9751 87.3464 57.092 87.196 57.2271ZM110.571 57.8V45.06C110.571 41.63 107.726 39.53 103.673 39.53C100.828 39.53 98.9076 40.58 97.7697 42.12V27.84H97.343C95.7784 29.52 93.0759 31.34 90.5156 31.76V32.11H92.3647C92.7914 32.11 92.8625 32.32 92.8625 32.74V57.45C92.8625 58.29 92.2225 58.71 91.7246 58.99C91.2268 59.27 90.729 59.55 90.729 59.97H99.6188C99.6188 59.69 99.2632 59.48 98.9787 59.34C98.2675 59.06 97.7697 58.78 97.7697 57.94V45.06C97.7697 42.89 99.6188 40.86 102.392 40.86C104.739 40.86 105.735 42.4 105.735 44.57V57.94C105.735 58.78 105.237 59.06 104.668 59.27C104.313 59.41 103.957 59.55 103.957 59.9H112.491C112.491 59.62 112.136 59.41 111.851 59.27C111.069 58.99 110.571 58.71 110.571 57.8ZM114.34 58.8501C114.838 58.5701 115.478 58.1501 115.478 57.3101V32.7401C115.478 32.3201 115.407 32.1101 115.051 32.1101H113.202V31.7601C115.834 31.3401 118.394 29.5201 119.958 27.8401H120.385V57.8001C120.385 58.6401 120.883 58.9201 121.594 59.2001C121.879 59.3401 122.234 59.5501 122.234 59.8301H113.344C113.344 59.4101 113.842 59.1301 114.34 58.8501ZM155.091 37.36L155.163 37.3598V37.36H155.091ZM155.163 37.3598V37.01C157.154 36.94 158.434 35.33 158.434 33.93C158.434 32.95 157.936 32.11 156.727 31.76L156.798 31.41L162.559 32.81C162.559 35.3139 158.838 37.334 155.163 37.3598ZM157.012 40.58C161.421 40.58 162.488 45.06 162.488 49.26C162.488 49.47 162.274 49.61 162.061 49.61H151.322C151.109 49.61 150.967 49.47 150.967 49.26C150.967 44.78 152.745 40.58 157.012 40.58ZM157.794 59.48C152.958 59.48 150.967 55.56 150.967 51.08C150.967 50.87 151.18 50.73 151.393 50.73H167.182C167.395 50.73 167.537 50.59 167.537 50.38C167.537 44.36 163.057 39.39 157.012 39.39C150.967 39.39 145.988 44.29 145.988 49.96C145.988 55.63 151.18 60.53 157.154 60.53C160.212 60.53 163.128 59.27 165.19 57.1L164.835 56.89C162.772 58.64 159.927 59.48 157.794 59.48ZM133.543 59.48C129.062 59.48 127.498 54.65 127.498 50.03C127.498 45.41 129.062 40.58 133.543 40.58C138.023 40.58 139.588 45.41 139.588 50.03C139.517 54.65 138.023 59.48 133.543 59.48ZM133.543 60.6C139.588 60.6 144.566 55.7 144.566 50.03C144.566 44.36 139.588 39.46 133.543 39.46C127.498 39.46 122.519 44.36 122.519 50.03C122.448 55.7 127.498 60.6 133.543 60.6Z" fill="#272727"/>
</svg>
